<svg id="eOvgmNCUG0y1" xmlns="http://www.w3.org/2000/svg" xmlns:xlink="http://www.w3.org/1999/xlink" viewBox="0 0 300 300" shape-rendering="geometricPrecision" text-rendering="geometricPrecision"><style><![CDATA[#eOvgmNCUG0y2_tr {animation: eOvgmNCUG0y2_tr__tr 10000ms linear infinite normal forwards}@keyframes eOvgmNCUG0y2_tr__tr { 0% {transform: translate(150.005001px,150px) rotate(0deg)} 100% {transform: translate(150.005001px,150px) rotate(-360deg)}} #eOvgmNCUG0y14_tr {animation: eOvgmNCUG0y14_tr__tr 10000ms linear infinite normal forwards}@keyframes eOvgmNCUG0y14_tr__tr { 0% {transform: translate(150px,150px) rotate(0deg)} 100% {transform: translate(150px,150px) rotate(360deg)}}]]></style><g id="eOvgmNCUG0y2_tr" transform="translate(150.005001,150) rotate(0)"><path id="eOvgmNCUG0y2" d="M91.57,115.85C103.191838,96.31114,123.977423,84.050171,146.7,83.33M155.7,216.67C177.856283,215.228309,197.743952,202.576976,208.44,183.12" transform="translate(-150.005001,-150)" fill="none" stroke="rgb(248,238,216)" stroke-width="0.5" stroke-miterlimit="10"/></g><g id="eOvgmNCUG0y3"><path id="eOvgmNCUG0y4" d="M117.67,118.21L136.49,114.3C136.872818,114.464944,137.240826,114.66233,137.59,114.89C138.315476,115.363779,138.971729,115.935897,139.54,116.59C140.381965,117.511255,141.154104,118.493976,141.85,119.53C146.11,126.31,147.17,128.37,147.17,128.37C148.71,131.37,150.82,135.37,153.81,140.84L168.81,119.57L168.89,114.35L183,114.35L183,119.68C181.725895,119.69738,180.453823,119.787527,179.19,119.95C178.655853,119.997741,178.134426,120.139949,177.65,120.37C177.119971,120.630227,176.649982,120.998045,176.27,121.45L157.17,146.45Q165,160,172.86,173.55Q174.09,175.62,175.5,177.78C175.99,178.52,176.5,179.24,176.96,179.95C177.221794,180.40635,177.588598,180.793722,178.03,181.08C178.471122,181.358019,178.971053,181.529228,179.49,181.58C180.68,181.7,181.2,181.31,182.56,181.58L182.9,181.66C182.9,183.01,182.9,184.35,182.9,185.66L162.71,185.66L147.51,158.5L132,181.83L132,185.64L117.62,185.64L117.62,181.64L121.24,181.5C121.533005,181.46986,121.821569,181.406107,122.1,181.31C122.841569,181.056006,123.498913,180.602784,124,180L144.67,153L131.47,130.56C130.183425,128.455591,128.667498,126.500314,126.95,124.73C126.04,123.8,125.13,122.98,124.27,122.26C124.098168,122.131149,123.905318,122.033032,123.7,121.97C123.463247,121.900736,123.214885,121.880322,122.97,121.91L118.42,122Z" fill="rgb(248,238,216)" stroke="none" stroke-width="1"/><path id="eOvgmNCUG0y5" d="M112.34,143.14L109.89,143.14C109.702203,143.120447,109.529809,143.245433,109.49,143.43C109.41,143.74,109.33,144.01,109.27,144.22C109.14,144.66,109.08,144.8,108.94,144.89C108.803656,144.967718,108.643509,144.99263,108.49,144.96L108.49,142.09L117.93,142L117.93,144.83C117.756308,144.887738,117.565979,144.865777,117.41,144.77C117.29,144.67,117.28,144.53,117.26,144.35C117.24,144.17,117.18,143.82,117.1,143.42C117.076773,143.345028,117.031465,143.278809,116.97,143.23C116.911866,143.187131,116.84218,143.162741,116.77,143.16L114.2,143.16L114.2,152.44C114.200696,152.504796,114.221679,152.567746,114.26,152.62C114.329075,152.703183,114.43188,152.750914,114.54,152.75L115.31,152.75C115.510147,152.793673,115.649587,152.975368,115.64,153.18C115.623087,153.339142,115.512945,153.472885,115.36,153.52L111.11,153.52C110.926661,153.451153,110.805227,153.275839,110.805227,153.08C110.805227,152.884161,110.926661,152.708847,111.11,152.64L112.11,152.64C112.194684,152.641657,112.275566,152.604893,112.33,152.54C112.371809,152.496816,112.39666,152.440014,112.4,152.38C112.34,149.31,112.34,146.23,112.34,143.14Z" fill="rgb(255,222,149)" stroke="rgb(113,117,119)" stroke-width="0.5" stroke-miterlimit="10"/><path id="eOvgmNCUG0y6" d="M121,141.66L118.49,142.05C118.316379,142.109022,118.184577,142.252122,118.14,142.43C118.093057,142.638307,118.180852,142.853805,118.36,142.97L119.29,142.88L119.29,152.59L118.19,152.59C118.054151,152.65129,117.962259,152.78147,117.95,152.93C117.947768,153.098849,118.051811,153.250912,118.21,153.31L122.21,153.31C122.298418,153.26543,122.363821,153.185493,122.39,153.09C122.424647,152.907743,122.329427,152.725583,122.16,152.65L121.07,152.65L121.07,148.28C121.148167,147.894286,121.347945,147.543797,121.64,147.28C122.066622,146.928333,122.624697,146.778784,123.17,146.87C123.690474,146.951822,124.157638,147.235715,124.47,147.66L124.47,153.31L127.6,153.31C127.565133,153.127532,127.470061,152.962037,127.33,152.84C127.050312,152.609345,126.667693,152.548126,126.33,152.68L126.33,147.79C126.012385,146.514909,124.901916,145.594922,123.59,145.52C122.562055,145.541037,121.609529,146.063992,121.04,146.92Z" fill="rgb(255,222,149)" stroke="rgb(113,117,119)" stroke-width="0.5" stroke-miterlimit="10"/><path id="eOvgmNCUG0y7" d="M134.75,149.73C134.75,149.73,134.82,149.49,134.82,149.14C134.835792,148.484219,134.698852,147.833751,134.42,147.24C133.744995,146.126424,132.497624,145.491117,131.2,145.6C129.267739,145.872443,127.814064,147.499376,127.76,149.45C127.648436,151.52488,129.088583,153.362456,131.13,153.75C132.398992,153.854992,133.648841,153.389506,134.54,152.48C134.663713,152.321798,134.661442,152.099031,134.534529,151.943384C134.407617,151.787737,134.189868,151.740667,134.01,151.83C133.416321,152.354373,132.625964,152.598401,131.84,152.5C130.555248,152.192766,129.644229,151.0509,129.63,149.73ZM133.05,148.73C133.05,148.73,131.93,148.73,129.56,148.73C129.510746,148.272075,129.616369,147.810852,129.86,147.42C130.231845,146.841087,130.882505,146.502439,131.57,146.53C132.143109,146.625391,132.630795,147.000534,132.87,147.53C133.00332,147.846466,133.071347,148.1866,133.07,148.53C133.074812,148.600622,133.068057,148.671556,133.05,148.74Z" fill="rgb(255,222,149)" stroke="rgb(113,117,119)" stroke-width="0.5" stroke-miterlimit="10"/><path id="eOvgmNCUG0y8" d="M139.42,142L144.08,142C144.190256,142.142779,144.246883,142.319737,144.24,142.5C144.223513,142.676688,144.141458,142.840797,144.01,142.96L142.9,142.96L142.63,143.12L142.63,152.4L146.54,152.4C146.857632,152.410169,147.172092,152.334146,147.45,152.18C147.96677,151.853227,148.305679,151.308025,148.37,150.7L148.37,153.54L140.51,153.54C140.308676,153.508699,140.14648,153.358371,140.1,153.16C140.112126,153.013265,140.184745,152.878187,140.300453,152.787138C140.416161,152.696089,140.564529,152.657276,140.71,152.68C140.71,149.5,140.71,146.32,140.71,143.14L140.48,143L139.48,143C139.315135,142.905143,139.207258,142.735479,139.191297,142.545943C139.175336,142.356408,139.253321,142.171093,139.4,142.05Z" fill="rgb(255,222,149)" stroke="rgb(113,117,119)" stroke-width="0.5" stroke-miterlimit="10"/><path id="eOvgmNCUG0y9" d="M149.18,146.73C149.545777,146.349947,149.989181,146.053208,150.48,145.86C150.938949,145.685309,151.429827,145.610314,151.92,145.64L151.92,151.37C152.269114,152.001387,152.945713,152.380567,153.66649,152.348768C154.387267,152.316969,155.027845,151.879679,155.32,151.22L155.32,147L154.08,147C154.033649,146.765603,154.033649,146.524397,154.08,146.29L156.92,145.75L156.92,152.54C156.92217,152.618905,156.954358,152.694011,157.01,152.75C157.06006,152.817696,157.136262,152.86124,157.22,152.87L158.02,152.87L158.24,153.55L155.35,153.55C155.35,153.14,155.35,152.74,155.35,152.33C155.087229,152.708137,154.746179,153.025313,154.35,153.26C153.842948,153.5519,153.264814,153.697299,152.68,153.68C151.956743,153.711749,151.2464,153.480887,150.68,153.03C150.509516,152.879968,150.35533,152.712374,150.22,152.53L150.22,147.39C150.223674,147.264291,150.184927,147.141005,150.11,147.04C149.986331,146.902887,149.80302,146.835548,149.62,146.86Z" fill="rgb(255,222,149)" stroke="rgb(113,117,119)" stroke-width="0.5" stroke-miterlimit="10"/><path id="eOvgmNCUG0y10" d="M167,146.8C167.361439,146.419431,167.801721,146.122497,168.29,145.93C168.752373,145.755088,169.246554,145.680109,169.74,145.71L169.74,151.44C170.018846,151.922578,170.486414,152.266911,171.03,152.39C171.898684,152.527116,172.755008,152.080691,173.14,151.29L173.14,147L171.9,147C171.853649,146.765603,171.853649,146.524397,171.9,146.29L174.74,145.75L174.74,152.54C174.742094,152.617044,174.770302,152.691091,174.82,152.75C174.871606,152.815933,174.946997,152.859013,175.03,152.87L175.83,152.87L176.06,153.55L173.17,153.55L173.17,152.33C172.912594,152.712754,172.570396,153.030998,172.17,153.26C171.662555,153.550925,171.0847,153.696253,170.5,153.68C169.776743,153.711749,169.0664,153.480887,168.5,153.03C168.324189,152.885506,168.169368,152.717221,168.04,152.53L168.04,147.39C168.03934,147.266403,167.997067,147.14663,167.92,147.05C167.802595,146.909336,167.621872,146.8378,167.44,146.86Z" fill="rgb(255,222,149)" stroke="rgb(113,117,119)" stroke-width="0.5" stroke-miterlimit="10"/><path id="eOvgmNCUG0y11" d="M159.56,146.56L158.81,146.56L158.81,145.87L161,145.87L162.87,148.68L164.77,145.77L166.39,145.77L166.39,146.49L165.84,146.49L163.41,149.17L166.1,152.95L166.84,152.95L166.84,153.54L164.5,153.54L162.43,150.46L160.36,153.46L158.81,153.46L158.81,152.76L159.33,152.76L161.87,149.76Z" fill="rgb(255,222,149)" stroke="rgb(113,117,119)" stroke-width="0.5" stroke-miterlimit="10"/><path id="eOvgmNCUG0y12" d="M176.75,146.23C177.423719,146.12598,178.091351,145.985778,178.75,145.81C179.09,145.72,179.42,145.63,179.75,145.53L179.75,147.05C179.948499,146.745738,180.183589,146.466987,180.45,146.22C180.642639,146.007065,180.877666,145.836756,181.14,145.72C181.576844,145.60636,182.040949,145.671119,182.43,145.9L182.43,148L182,148C181.865349,147.689365,181.602741,147.452288,181.28,147.35C180.894387,147.259216,180.488652,147.359719,180.19,147.62C179.970019,147.789398,179.809054,148.023847,179.73,148.29L179.73,152.51C179.767272,152.596458,179.825741,152.672123,179.9,152.73C180.001429,152.813532,180.128603,152.859456,180.26,152.86L181.41,152.86L181.41,153.55L176.9,153.55L176.9,152.75L177.36,152.75C177.494015,152.783915,177.636145,152.758405,177.75,152.68C177.91549,152.558338,177.993859,152.350662,177.95,152.15L177.95,146.82L176.8,146.94Z" fill="rgb(255,222,149)" stroke="rgb(113,117,119)" stroke-width="0.5" stroke-miterlimit="10"/><path id="eOvgmNCUG0y13" d="M182.76,145.85L186.76,145.85L186.76,146.61L185.68,146.61L187.43,151.49L189.56,146.62L188.36,146.62L188.36,145.79L191.51,145.79L191.51,146.54L190.76,146.54L187.57,153.84C187.17,154.84,186.79,155.6,186.48,156.19C186.284233,156.686087,185.95976,157.121019,185.54,157.45C185.083216,157.726975,184.553386,157.859433,184.02,157.83C183.678219,157.816372,183.340732,157.748875,183.02,157.63L183.63,156.04C183.806213,156.27851,184.067749,156.439731,184.36,156.49C184.673965,156.508338,184.981557,156.396157,185.21,156.18C185.504497,155.911626,185.716144,155.564664,185.82,155.18L186.51,153.54L183.59,146.44L182.75,146.44Z" fill="rgb(255,222,149)" stroke="rgb(113,117,119)" stroke-width="0.5" stroke-miterlimit="10"/></g><g id="eOvgmNCUG0y14_tr" transform="translate(150,150) rotate(0)"><g id="eOvgmNCUG0y14" transform="translate(-150,-150)"><circle id="eOvgmNCUG0y15" r="102.83" transform="matrix(1 0 0 1 150 150)" fill="none" stroke="rgb(248,238,216)" stroke-width="1" stroke-miterlimit="10"/><circle id="eOvgmNCUG0y16" r="5.25" transform="matrix(1 0 0 1 107.23 56.12)" fill="rgb(248,238,216)" stroke="rgb(248,238,216)" stroke-width="1" stroke-miterlimit="10"/><circle id="eOvgmNCUG0y17" r="5.25" transform="matrix(1 0 0 1 72.05 217.65)" fill="rgb(248,238,216)" stroke="rgb(248,238,216)" stroke-width="1" stroke-miterlimit="10"/><circle id="eOvgmNCUG0y18" r="5.25" transform="matrix(1 0 0 1 252.62 151.86)" fill="rgb(248,238,216)" stroke="rgb(248,238,216)" stroke-width="1" stroke-miterlimit="10"/></g></g><path id="eOvgmNCUG0y19" d="M234.9,150C234.9,196.888975,196.888975,234.9,150,234.9C103.111025,234.9,65.1,196.888975,65.1,150C65.1,103.111025,103.111025,65.1,150,65.1C196.888975,65.1,234.9,103.111025,234.9,150ZM150,75C108.578644,75,75,108.578644,75,150C75,191.421356,108.578644,225,150,225C191.421356,225,225,191.421356,225,150C225,108.578644,191.421356,75,150,75ZM150,70.12C105.897144,70.120001,70.143684,105.870479,70.140003,149.973335C70.136322,194.076191,105.883814,229.832636,149.98667,229.839999C194.089526,229.847362,229.848955,194.102855,229.86,150C229.862653,128.818998,221.449707,108.504753,206.472477,93.527523C191.495247,78.550293,171.181002,70.137347,150,70.14ZM150,91.12C117.495124,91.120002,91.143684,117.468459,91.140004,149.973336C91.136323,182.478212,117.481796,208.832636,149.986671,208.839998C182.491547,208.847361,208.848955,182.504875,208.86,150C208.86,134.389357,202.658696,119.418086,191.620305,108.379695C180.581914,97.341304,165.610643,91.14,150,91.14Z" fill="none" stroke="rgb(248,238,216)" stroke-width="0.5" stroke-miterlimit="10"/></svg>